<svg xmlns="http://www.w3.org/2000/svg" width="18" height="18" viewBox="0 0 18 18" fill="none"><path d="M15.3671 2.63293C11.8564 -0.877644 6.14363 -0.877644 2.63298 2.63293C-0.877661 6.14351 -0.877661 11.8562 2.63298 15.3668C4.38831 17.1221 6.69403 18 8.99975 18C11.3055 18 13.6112 17.1221 15.3665 15.3668C18.8777 11.8556 18.8777 6.14351 15.3671 2.63293ZM16.46 6.49468C14.4312 6.6652 12.5954 7.36135 11.0674 8.45031C10.6548 7.84027 10.2036 7.25718 9.71674 6.70459C10.7134 5.22394 11.3426 3.4664 11.5047 1.53946C12.6597 1.92194 13.7096 2.56864 14.5707 3.42813C15.4305 4.28942 16.0774 5.33944 16.46 6.49468ZM10.3938 1.25245C10.284 2.9796 9.76964 4.5458 8.93503 5.8745C7.15776 4.10796 5.38387 3.10453 4.38099 2.62843C5.72331 1.65235 7.34005 1.12598 8.99975 1.1247C9.46686 1.1247 9.93285 1.17029 10.3938 1.25245ZM3.42538 3.43207C4.10916 3.71008 6.20272 4.67805 8.28164 6.79689C6.631 8.82456 4.14293 10.1116 1.23728 10.2872C0.839392 7.86672 1.56369 5.29597 3.42538 3.43207ZM1.50291 11.3992C4.55939 11.1584 7.21573 9.76157 9.02789 7.61347C9.44543 8.10266 9.8335 8.61625 10.19 9.15153C8.15614 10.9575 6.8336 13.5361 6.60004 16.4963C5.40356 16.1181 4.31565 15.4576 3.4282 14.5705C2.54132 13.6831 1.88098 12.5955 1.50291 11.3992ZM7.71211 16.7619C7.87531 14.0673 8.99807 11.7375 10.7782 10.0959C11.6797 11.6671 12.4254 13.5744 12.8486 15.866C11.2874 16.7379 9.47634 17.0538 7.71211 16.7619ZM14.5713 14.571C14.3492 14.7906 14.1143 14.997 13.8678 15.189C13.3906 12.8923 12.5976 10.9738 11.6572 9.37832C13.0794 8.35914 14.8127 7.72884 16.747 7.60559C17.1849 10.0582 16.4623 12.6795 14.5713 14.571Z" fill="#EE8B2A"></path></svg>