<svg xmlns="http://www.w3.org/2000/svg" width="20" height="13" viewBox="0 0 20 13" fill="none"><path d="M18.0553 0.659179H12.9894V2.11015H18.0753L18.0553 0.659179ZM16.9862 10.6411C16.6019 10.9033 16.148 11.0364 15.6872 11.0218C15.3822 11.0546 15.0739 11.0221 14.7816 10.9265C14.4893 10.8309 14.2194 10.6742 13.9886 10.4661C13.562 9.96793 13.3399 9.31857 13.3691 8.65498H19.9837C20.0314 7.96402 19.9741 7.26962 19.8139 6.59686C19.6589 5.95681 19.3877 5.35275 19.0145 4.81658C18.639 4.2965 18.1539 3.87079 17.5957 3.57142C16.9746 3.25606 16.2897 3.09733 15.5973 3.10834C14.9462 3.10343 14.3006 3.2329 13.6989 3.4891C13.1478 3.72835 12.6485 4.07816 12.23 4.51816C11.8128 4.96695 11.4897 5.49938 11.2808 6.08233C11.0567 6.71165 10.945 7.37755 10.9511 8.04783C10.9408 8.72764 11.0491 9.40382 11.2708 10.0442C11.4592 10.6241 11.7581 11.1594 12.1501 11.6187C12.5557 12.0696 13.0542 12.4212 13.6089 12.6477C14.2275 12.8905 14.8855 13.0092 15.5473 12.9976C16.476 13.0274 17.3929 12.7771 18.1852 12.2773C18.9855 11.6916 19.5616 10.8361 19.8139 9.85898H17.6057C17.4875 10.1822 17.2699 10.4569 16.9862 10.6411ZM13.559 6.40134C13.6367 6.14477 13.7658 5.90783 13.9379 5.70578C14.11 5.50373 14.3213 5.34104 14.5582 5.22821C14.8719 5.08279 15.2135 5.01242 15.5573 5.0224C15.8058 5.00054 16.0558 5.0343 16.2904 5.12133C16.5249 5.20837 16.7384 5.34663 16.9162 5.52664C17.2557 5.95466 17.4736 6.4711 17.5457 7.01877H13.3991C13.4153 6.80965 13.4521 6.60277 13.509 6.40134H13.559ZM8.27327 5.90739C8.78181 5.68929 9.2237 5.33375 9.55223 4.87833C9.8542 4.39467 10.0042 3.82697 9.98188 3.25241C10.0015 2.72845 9.90225 2.207 9.69211 1.7294C9.51557 1.31563 9.23217 0.959692 8.87278 0.700342C8.49174 0.4307 8.05905 0.248237 7.60381 0.16523C7.06507 0.0488573 6.51557 -0.0063554 5.96515 0.000580756H0V12.9462H6.09504C6.65128 12.9466 7.20529 12.874 7.7437 12.7301C8.25403 12.5941 8.73751 12.3678 9.17253 12.0612C9.59393 11.7604 9.93706 11.3575 10.1717 10.888C10.4314 10.363 10.5586 9.77907 10.5414 9.19009C10.5603 8.46022 10.3616 7.74191 9.97188 7.13197C9.55281 6.51857 8.93125 6.08327 8.22331 5.90739H8.27327ZM2.76775 2.21306H5.35564C5.59339 2.21276 5.83073 2.23342 6.06506 2.2748C6.28084 2.30774 6.48806 2.38471 6.67457 2.5012C6.85477 2.60618 7.00078 2.76372 7.09423 2.95398C7.20995 3.18215 7.2651 3.43774 7.2541 3.69491C7.27271 3.9164 7.23983 4.13927 7.15816 4.34507C7.07649 4.55087 6.9484 4.73367 6.78448 4.87833C6.42689 5.13151 5.999 5.25793 5.56547 5.2385H2.76775V2.21306ZM7.60381 9.86927C7.50115 10.079 7.34592 10.2566 7.15418 10.3838C6.95464 10.5116 6.73479 10.6022 6.50471 10.6514C6.24897 10.7103 5.98737 10.7379 5.72534 10.7337H2.72778V7.18342H5.72534C6.23974 7.16022 6.74773 7.30816 7.17416 7.60534C7.36682 7.7834 7.51605 8.00568 7.60979 8.25418C7.70353 8.50268 7.73913 8.77042 7.71372 9.03573C7.74074 9.3186 7.7031 9.60406 7.60381 9.86927Z" fill="#EE8B2A"></path></svg>