<svg xmlns="http://www.w3.org/2000/svg" width="437" height="62" viewBox="0 0 437 62" fill="none"><path d="M72.5849 46.681V17.1372H92.5579C94.5871 17.0938 96.6079 17.4131 98.5255 18.0803C100.106 18.6292 101.481 19.6528 102.462 21.0122C103.455 22.5181 103.949 24.2999 103.874 26.1039C103.91 27.3317 103.662 28.5511 103.148 29.6662C102.681 30.6148 101.984 31.4311 101.122 32.041C100.214 32.6714 99.2059 33.1423 98.1406 33.4337C96.9644 33.7602 95.7583 33.9665 94.5406 34.0494L93.9073 33.6829C95.6647 33.6741 97.4182 33.8493 99.1393 34.2058C100.329 34.4221 101.411 35.033 102.213 35.9405C102.895 36.7777 103.236 38.0172 103.236 39.6591V46.6957H97.1809V40.0696C97.234 39.1552 97.0297 38.2442 96.5915 37.4406C96.0824 36.7453 95.3214 36.2785 94.4724 36.1408C93.0288 35.8573 91.5585 35.7344 90.0881 35.7743H78.6548V46.681H72.5849ZM78.6401 31.0149H92.5725C94.2678 31.0149 95.5685 30.6044 96.4697 29.7835C96.9189 29.3574 97.2711 28.839 97.5023 28.2639C97.7335 27.6888 97.8382 27.0703 97.8094 26.4509C97.8449 25.8709 97.7419 25.2907 97.5089 24.7586C97.2759 24.2266 96.9196 23.758 96.4697 23.3919C95.5734 22.6932 94.2727 22.3413 92.5725 22.3413H78.6401V31.0149Z" fill="white"></path><path d="M129.912 39.1457H135.651C135.408 40.6878 134.732 42.1286 133.702 43.2992C132.543 44.596 131.082 45.5848 129.45 46.1774C127.347 46.9292 125.124 47.2854 122.893 47.228C120.276 47.2777 117.676 46.8043 115.244 45.8353C113.166 45.0133 111.365 43.6108 110.056 41.7942C108.777 39.9131 108.124 37.674 108.19 35.3977C108.125 33.1235 108.761 30.8845 110.012 28.9866C111.281 27.1698 113.045 25.7583 115.093 24.921C117.513 23.9298 120.109 23.4474 122.722 23.504C125.694 23.504 128.167 23.9763 130.141 24.921C132.043 25.8057 133.588 27.3114 134.526 29.1919C135.48 31.0943 135.882 33.5213 135.729 36.4728H114.163C114.316 37.6038 114.761 38.6751 115.454 39.5806C116.222 40.5643 117.228 41.3347 118.377 41.8186C119.765 42.3957 121.259 42.6753 122.761 42.6395C124.387 42.6966 126.002 42.3615 127.472 41.6622C128.581 41.1736 129.456 40.2709 129.912 39.1457ZM122.449 28.0044C120.26 28.0044 118.484 28.4833 117.12 29.4411C115.851 30.2707 114.916 31.524 114.48 32.9789H129.869C129.806 32.2488 129.579 31.5426 129.204 30.9136C128.829 30.2846 128.317 29.7493 127.706 29.3482C126.416 28.4556 124.664 28.0077 122.449 28.0044Z" fill="white"></path><path d="M151.171 47.1792C149.04 47.2113 146.935 46.7073 145.048 45.7133C143.236 44.7538 141.72 43.3158 140.664 41.5549C139.561 39.6838 139.001 37.5414 139.046 35.3686C138.993 33.1699 139.562 31.0011 140.688 29.1138C141.769 27.3599 143.302 25.9316 145.126 24.9798C147.085 23.9777 149.26 23.4743 151.459 23.5139C154.057 23.5139 156.16 24.04 157.767 25.0922C159.345 26.1035 160.572 27.5801 161.28 29.3191C162.03 31.2374 162.4 33.2838 162.371 35.3441C162.364 36.7334 162.149 38.1138 161.733 39.439C161.314 40.823 160.654 42.1216 159.784 43.2749C158.867 44.4772 157.683 45.4477 156.325 46.1091C154.714 46.8632 152.949 47.2296 151.171 47.1792ZM153.086 42.6152C154.681 42.6552 156.266 42.3432 157.728 41.7015C158.953 41.1576 159.996 40.2701 160.729 39.1458C161.439 38.0113 161.804 36.6933 161.777 35.3539C161.821 33.9606 161.449 32.5858 160.71 31.4056C159.968 30.3133 158.923 29.4637 157.704 28.9623C156.239 28.3664 154.667 28.0787 153.086 28.117C150.563 28.117 148.604 28.7799 147.211 30.1058C146.509 30.7856 145.96 31.6072 145.598 32.5162C145.237 33.4252 145.073 34.4008 145.116 35.3783C145.085 36.7185 145.433 38.0401 146.12 39.1898C146.798 40.2802 147.766 41.1587 148.916 41.7259C150.216 42.3501 151.645 42.6549 153.086 42.6152ZM161.777 23.983H167.695V46.6808H162.186C162.036 45.4918 161.931 44.4412 161.869 43.529C161.806 42.6152 161.777 41.7161 161.777 40.8317V23.983Z" fill="white"></path><path d="M173.522 14.8501H179.441V46.6808H173.522V14.8501Z" fill="white"></path><path d="M186.178 46.681V17.1372H203.14C207.086 17.1372 210.084 17.7985 212.133 19.1211C214.182 20.4437 215.207 22.4146 215.207 25.0338C215.207 26.7099 214.798 28.0243 213.974 28.987C213.043 30.0158 211.835 30.7524 210.496 31.1077C208.767 31.6013 206.987 31.8931 205.191 31.9775L205.371 31.655C206.781 31.6781 208.188 31.7858 209.585 31.9775C210.79 32.1192 211.965 32.449 213.068 32.9548C214.025 33.4058 214.841 34.1083 215.431 34.9876C216.055 36.0152 216.357 37.2067 216.298 38.4082C216.358 40.0481 215.84 41.6567 214.837 42.9526C213.766 44.2215 212.362 45.163 210.784 45.6695C208.845 46.3147 206.819 46.6543 204.777 46.6761L186.178 46.681ZM192.233 29.6467H202.95C204.86 29.6467 206.331 29.3649 207.364 28.8013C208.397 28.2377 208.907 27.2702 208.894 25.8987C208.894 24.5256 208.377 23.563 207.344 22.9961C206.069 22.38 204.662 22.0896 203.247 22.1508H192.233V29.6467ZM192.233 41.6577H204.158C206.068 41.6577 207.568 41.345 208.572 40.7195C209.079 40.412 209.492 39.9701 209.765 39.4426C210.039 38.915 210.162 38.3221 210.121 37.7289C210.157 37.3166 210.093 36.9016 209.935 36.5195C209.776 36.1374 209.527 35.7995 209.21 35.5349C208.498 35.0397 207.664 34.7491 206.799 34.6944C205.726 34.5834 204.648 34.5296 203.569 34.5332H192.233V41.6577Z" fill="#EE8B2A"></path><path d="M241.532 39.1457H247.266C247.024 40.688 246.348 42.129 245.317 43.2993C244.157 44.5961 242.694 45.5849 241.06 46.1774C238.959 46.9294 236.738 47.2855 234.508 47.228C231.891 47.2778 229.291 46.8044 226.859 45.8354C224.781 45.0133 222.98 43.6109 221.671 41.7942C220.392 39.9132 219.739 37.6741 219.806 35.3978C219.75 33.1212 220.394 30.8827 221.652 28.9867C222.916 27.1734 224.673 25.7623 226.713 24.9211C229.123 23.9236 231.711 23.4329 234.318 23.4796C237.293 23.4796 239.767 23.952 241.742 24.8967C243.645 25.779 245.191 27.2854 246.126 29.1675C247.1 31.07 247.503 33.4969 247.334 36.4484H225.783C225.931 37.589 226.378 38.6698 227.079 39.5806C227.845 40.5658 228.852 41.3365 230.002 41.8187C231.39 42.3963 232.883 42.6759 234.386 42.6396C236.011 42.6961 237.627 42.361 239.097 41.6623C240.202 41.1709 241.075 40.269 241.532 39.1457ZM234.064 28.0045C231.882 28.0045 230.107 28.4834 228.74 29.4411C227.471 30.2708 226.536 31.524 226.1 32.979H241.484C241.421 32.2494 241.195 31.5436 240.821 30.9147C240.447 30.2858 239.936 29.7502 239.326 29.3483C238.036 28.4557 236.283 28.0078 234.064 28.0045Z" fill="#EE8B2A"></path><path d="M251.772 23.9829H257.701V46.6807H251.772V23.9829ZM268.208 23.4942C269.518 23.4828 270.822 23.6689 272.076 24.0464C273.214 24.3847 274.268 24.9591 275.17 25.7322C276.072 26.5242 276.775 27.5187 277.221 28.6348C277.735 29.9659 277.981 31.3857 277.947 32.8128V46.6807H272.033V33.8487C272.033 31.9299 271.57 30.521 270.644 29.6219C269.719 28.7228 268.208 28.2748 266.114 28.2781C264.638 28.2558 263.176 28.5665 261.837 29.187C260.653 29.7275 259.597 30.5136 258.738 31.4934C258.006 32.3033 257.531 33.3139 257.374 34.396L257.326 32.0651C257.485 30.9759 257.84 29.9247 258.373 28.9622C259.585 26.7698 261.54 25.0849 263.883 24.2125C265.268 23.7046 266.734 23.4561 268.208 23.4795V23.4942Z" fill="#EE8B2A"></path><path d="M282.136 36.7221H288.284C288.422 37.7969 288.929 38.79 289.716 39.5319C290.654 40.427 291.784 41.0955 293.019 41.4865C294.5 41.9783 296.053 42.2178 297.613 42.195C298.905 42.2363 300.196 42.0714 301.437 41.7064C302.301 41.4601 303.076 40.9679 303.668 40.2893C304.16 39.6681 304.419 38.8932 304.399 38.1001C304.417 37.7326 304.344 37.3663 304.186 37.0343C304.028 36.7024 303.789 36.4153 303.493 36.1993C302.616 35.6517 301.641 35.2799 300.623 35.1047C299.318 34.8115 297.603 34.5183 295.479 34.2105C293.878 33.9861 292.295 33.6431 290.744 33.1843C289.363 32.7892 288.04 32.2142 286.808 31.474C285.728 30.8316 284.809 29.9489 284.124 28.8939C283.453 27.8047 283.115 26.5428 283.149 25.2633C283.116 23.6196 283.63 22.0117 284.611 20.6944C285.753 19.278 287.274 18.217 288.995 17.6354C291.294 16.8495 293.714 16.4789 296.142 16.5408C300.389 16.5408 303.66 17.4465 305.953 19.2577C308.245 21.069 309.374 23.5579 309.338 26.7243H303.395C303.275 24.9261 302.523 23.6328 301.14 22.8444C299.537 21.9996 297.741 21.5903 295.932 21.657C294.288 21.6002 292.651 21.8951 291.129 22.5219C290.544 22.7575 290.048 23.1706 289.709 23.7034C289.37 24.2361 289.205 24.8618 289.239 25.4929C289.229 26.0086 289.388 26.5134 289.692 26.9296C290.105 27.4177 290.64 27.7884 291.241 28.0046C292.2 28.376 293.19 28.6653 294.198 28.8695C295.445 29.1431 296.994 29.4168 298.845 29.6904C300.436 29.9043 302.011 30.2309 303.556 30.6677C304.838 31.0173 306.064 31.5506 307.195 32.251C308.176 32.8682 308.984 33.7259 309.543 34.7431C310.121 35.8858 310.403 37.1564 310.361 38.4373C310.4 40.1053 309.915 41.7432 308.973 43.1186C307.892 44.5594 306.398 45.635 304.691 46.2019C302.765 46.9349 300.269 47.2998 297.204 47.2965C295.253 47.3267 293.307 47.0883 291.421 46.588C289.894 46.1804 288.437 45.5428 287.1 44.6969C285.982 43.9912 284.982 43.1121 284.138 42.0924C283.446 41.2572 282.907 40.306 282.545 39.2826C282.237 38.4658 282.098 37.5946 282.136 36.7221Z" fill="#EE8B2A"></path><path d="M314.911 23.9828H320.83V46.6806H314.911V23.9828ZM331.343 23.4941C332.662 23.4799 333.976 23.6661 335.24 24.0463C336.377 24.3857 337.431 24.96 338.333 25.7322C339.235 26.5241 339.938 27.5187 340.384 28.6347C340.896 29.9664 341.143 31.3859 341.11 32.8127V46.6806H335.157V33.8486C335.157 31.9299 334.694 30.5209 333.769 29.6218C332.843 28.7227 331.335 28.2748 329.243 28.278C327.766 28.2562 326.303 28.5668 324.961 29.1869C323.78 29.7287 322.725 30.5147 321.868 31.4933C321.134 32.303 320.658 33.3135 320.499 34.3959L320.455 32.0651C320.619 30.9749 320.979 29.9236 321.517 28.9621C322.726 26.7669 324.681 25.0811 327.027 24.2125C328.408 23.705 329.871 23.4566 331.343 23.4795V23.4941ZM351.058 23.4941C352.367 23.4827 353.671 23.6688 354.926 24.0463C356.063 24.3846 357.117 24.959 358.019 25.7322C358.924 26.5268 359.634 27.5201 360.094 28.6347C360.622 29.9627 360.877 31.3836 360.844 32.8127V46.6806H354.926V33.8486C354.926 31.9299 354.455 30.5209 353.513 29.6218C352.571 28.7227 351.054 28.2748 348.963 28.278C347.486 28.2562 346.023 28.5668 344.681 29.1869C343.499 29.7287 342.445 30.5147 341.587 31.4933C340.855 32.2984 340.394 33.3136 340.267 34.3959L340.175 31.9527C340.348 30.8876 340.72 29.8648 341.271 28.9377C341.872 27.9047 342.641 26.9797 343.546 26.2013C344.523 25.3623 345.639 24.7009 346.844 24.2467C348.189 23.731 349.618 23.4708 351.058 23.4795V23.4941Z" fill="#EE8B2A"></path><path d="M372.999 14.0293V19.2334H366.125V14.0293H372.999ZM366.578 23.9831H372.497V46.6809H366.578V23.9831Z" fill="#EE8B2A"></path><path d="M376.823 23.9832H394.394V28.5961H376.823V23.9832ZM382.669 17.7725H388.583V46.681H382.649L382.669 17.7725Z" fill="#EE8B2A"></path><path d="M398.579 46.6808V14.8501H404.498V46.6808H398.579ZM418.839 46.6808V34.2056C418.876 33.135 418.657 32.0711 418.201 31.1026C417.758 30.2656 417.043 29.6053 416.175 29.2311C414.996 28.7584 413.731 28.5403 412.462 28.591C411.068 28.5726 409.686 28.8612 408.414 29.4363C407.279 29.9396 406.268 30.6869 405.452 31.6255C404.739 32.4186 404.294 33.4173 404.181 34.4792L404.132 31.9724C404.302 30.9134 404.656 29.8928 405.18 28.9574C405.747 27.9247 406.487 26.9975 407.367 26.2161C408.336 25.3593 409.454 24.6885 410.665 24.2371C412.055 23.715 413.531 23.4581 415.015 23.4797C416.323 23.4678 417.626 23.6455 418.883 24.0074C420.014 24.3296 421.067 24.8818 421.976 25.6297C422.86 26.3624 423.562 27.2908 424.027 28.3417C424.535 29.5465 424.782 30.8456 424.753 32.1532V46.6808H418.839Z" fill="#EE8B2A"></path><path d="M437 41.4717V46.6807H430.151V41.4717H437Z" fill="#EE8B2A"></path><path d="M35.4351 27.2227C35.4274 20.0027 32.5636 13.0807 27.4726 7.97675C22.3816 2.87276 15.4794 0.00387967 8.28156 0V9.61665C12.9366 9.61665 17.401 11.4716 20.6926 14.7733C23.9842 18.0751 25.8335 22.5533 25.8335 27.2227C25.8335 31.8922 23.9842 36.3703 20.6926 39.6721C17.401 42.9739 12.9366 44.8288 8.28156 44.8288V54.4455C10.4466 54.4448 12.6038 54.1839 14.707 53.6685L22.9885 61.9756H36.5361L24.0164 49.4124C27.5476 46.8968 30.4269 43.5697 32.4135 39.7092C34.4001 35.8487 35.4362 31.5672 35.4351 27.2227Z" fill="white"></path><path d="M52.9383 29.28C55.3252 26.8759 56.9484 23.8162 57.6028 20.4873C58.2572 17.1584 57.9134 13.7097 56.615 10.5767C55.3165 7.44362 53.1216 4.76683 50.3074 2.88437C47.4932 1.0019 44.186 -0.00181193 40.8035 2.45552e-06V9.61665C42.8022 9.61665 44.719 10.4131 46.1323 11.8308C47.5456 13.2484 48.3396 15.1712 48.3396 17.1761C48.3396 19.181 47.5456 21.1037 46.1323 22.5214C44.719 23.9391 42.8022 24.7355 40.8035 24.7355V34.3521C43.1872 34.3521 45.4733 35.302 47.1588 36.9928C48.8444 38.6835 49.7913 40.9767 49.7913 43.3678C49.7913 45.7588 48.8444 48.052 47.1588 49.7427C45.4733 51.4335 43.1872 52.3834 40.8035 52.3834V62C44.5975 62.0083 48.3028 60.85 51.4205 58.6813C54.5382 56.5126 56.9184 53.4376 58.2406 49.8704C59.5627 46.3033 59.7633 42.4154 58.8153 38.7304C57.8672 35.0454 55.8162 31.7403 52.9383 29.2604V29.28Z" fill="#EC8B23"></path><path d="M11.4724 34.9122C15.7054 33.1534 17.7156 28.2854 15.9622 24.0393C14.2088 19.7932 9.35584 17.7768 5.1228 19.5356C0.889753 21.2944 -1.12041 26.1624 0.632975 30.4085C2.38636 34.6546 7.23932 36.671 11.4724 34.9122Z" fill="white"></path></svg>