<svg xmlns="http://www.w3.org/2000/svg" width="158" height="158" viewBox="0 0 158 158" fill="none"><path d="M101.543 134.524C132.214 121.777 146.779 86.4962 134.075 55.7219C121.37 24.9475 86.2071 10.3336 55.5356 23.0807C24.8641 35.8279 10.2991 71.109 23.0036 101.883C35.7081 132.658 70.8713 147.272 101.543 134.524Z" fill="#EE8B2A"></path><path d="M75.3883 88.9065C75.7938 88.5009 76.1994 88.3657 76.7401 88.3657L90.2583 88.3658C91.3398 88.3658 92.1509 89.1768 92.1509 90.2583C92.1509 91.3398 91.3398 92.1509 90.2583 92.1509L76.7401 92.1509C75.6586 92.1509 74.8475 91.3398 74.8475 90.2583C74.8475 89.7176 74.9827 89.312 75.3883 88.9065Z" fill="white"></path><path d="M88.9065 75.3883C89.312 74.9827 89.7176 74.8475 90.2583 74.8475C91.3398 74.8475 92.1509 75.6586 92.1509 76.7401V90.2583C92.1509 91.3398 91.3398 92.1509 90.2583 92.1509C89.1768 92.1509 88.3658 91.3398 88.3658 90.2583L88.3658 76.7401C88.3658 76.1994 88.5009 75.7938 88.9065 75.3883Z" fill="white"></path><path d="M67.2773 67.2773C68.0884 66.4662 69.1699 66.4662 69.981 67.2773L91.6101 88.9065C92.4212 89.7176 92.4212 90.799 91.6101 91.6101C90.799 92.4212 89.7176 92.4212 88.9065 91.6101L67.2773 69.981C66.4662 69.1699 66.4662 68.0884 67.2773 67.2773Z" fill="white"></path></svg>