<svg xmlns="http://www.w3.org/2000/svg" width="280" height="613" viewBox="0 0 280 613" fill="none"><path d="M10.877 269.022C10.9535 197.671 39.2464 129.267 89.5437 78.8282C139.841 28.3893 208.032 0.0383399 279.144 0V95.0341C233.154 95.0341 189.047 113.365 156.527 145.994C124.007 178.623 105.738 222.877 105.738 269.022C105.738 315.166 124.007 359.421 156.527 392.05C189.047 424.679 233.154 443.009 279.144 443.009V538.043C257.754 538.037 236.442 535.459 215.663 530.365L133.845 612.458H-3.05176e-05L123.69 488.305C88.8029 463.446 60.3564 430.566 40.7297 392.416C21.1029 354.266 10.8666 311.955 10.877 269.022Z" fill="#333645"></path></svg>