<svg xmlns="http://www.w3.org/2000/svg" width="92" height="91" viewBox="0 0 92 91" fill="none"><path d="M5.33582 50.668C8.28271 72.8487 28.7009 88.4778 50.9411 85.5766C73.1813 82.6754 88.8217 62.3424 85.8748 40.1617C82.9279 17.981 62.5097 2.35191 40.2695 5.25314C18.0293 8.15438 2.38892 28.4873 5.33582 50.668Z" fill="#EE8B2A"></path><path d="M39.5802 40.8225C39.7734 41.1571 39.7906 41.4445 39.6963 41.7964L37.3393 50.5928C37.1508 51.2965 36.4816 51.6829 35.7779 51.4943C35.0742 51.3058 34.6878 50.6365 34.8763 49.9328L37.2333 41.1364C37.4219 40.4327 38.0911 40.0463 38.7948 40.2349C39.1467 40.3292 39.387 40.4879 39.5802 40.8225Z" fill="white"></path><path d="M46.0196 51.9759C46.2128 52.3105 46.23 52.5979 46.1358 52.9498C45.9472 53.6535 45.278 54.0399 44.5743 53.8513L35.7779 51.4943C35.0742 51.3058 34.6878 50.6366 34.8763 49.9329C35.0649 49.2291 35.7341 48.8428 36.4378 49.0313L45.2342 51.3883C45.5861 51.4826 45.8264 51.6413 46.0196 51.9759Z" fill="white"></path><path d="M55.0686 39.3158C55.455 39.985 55.2664 40.6887 54.5972 41.0751L36.7518 51.3782C36.0826 51.7645 35.3789 51.576 34.9925 50.9068C34.6061 50.2376 34.7947 49.5338 35.4639 49.1475L53.3093 38.8444C53.9785 38.458 54.6823 38.6466 55.0686 39.3158Z" fill="white"></path></svg>