<svg xmlns="http://www.w3.org/2000/svg" width="65" height="65" viewBox="0 0 65 65" fill="none"><circle cx="32.5" cy="32.5" r="32.5" fill="#EE8B2A"></circle><path d="M41.9628 36.5555C41.5572 36.1499 41.422 35.7444 41.422 35.2037L41.422 21.6855C41.422 20.604 42.2331 19.7929 43.3146 19.7929C44.396 19.7929 45.2071 20.604 45.2071 21.6855L45.2071 35.2037C45.2071 36.2851 44.396 37.0962 43.3146 37.0962C42.7738 37.0962 42.3683 36.961 41.9628 36.5555Z" fill="white"></path><path d="M28.4445 23.0372C28.039 22.6317 27.9038 22.2261 27.9038 21.6854C27.9038 20.604 28.7149 19.7929 29.7964 19.7929H43.3146C44.396 19.7929 45.2071 20.604 45.2071 21.6854C45.2071 22.7669 44.396 23.578 43.3146 23.578L29.7964 23.578C29.2556 23.578 28.8501 23.4428 28.4445 23.0372Z" fill="white"></path><path d="M20.3336 44.6664C19.5225 43.8553 19.5225 42.7739 20.3336 41.9628L41.9628 20.3336C42.7738 19.5225 43.8553 19.5225 44.6664 20.3336C45.4775 21.1447 45.4775 22.2262 44.6664 23.0373L23.0372 44.6664C22.2262 45.4775 21.1447 45.4775 20.3336 44.6664Z" fill="white"></path></svg>